HIERARCHY
ROOT Hips
{
     OFFSET 1.88212 96.90440 -13.34250
     CHANNELS 6 Xposition Yposition Zposition Zrotation Xrotation Yrotation
     JOINT Spine
     {
          OFFSET 0.00000 11.89050 0.00000
          CHANNELS 3 Zrotation Xrotation Yrotation
          JOINT Spine1
          {
               OFFSET -0.00000 25.65740 0.12766
               CHANNELS 3 Zrotation Xrotation Yrotation
               JOINT HEad
               {
                    OFFSET 0.00000 8.73416 0.01134
                    CHANNELS 3 Zrotation Xrotation Yrotation
                    End Site
                    {
                         OFFSET -0.29000 12.77420 2.51395
                    }
               }
               JOINT LeftShoulder1
               {
                    OFFSET 8.99000 -0.36225 -0.22000
                    CHANNELS 3 Zrotation Xrotation Yrotation
                    JOINT LeftArm
                    {
                         OFFSET 10.28270 -0.00338 0.32212
                         CHANNELS 3 Zrotation Xrotation Yrotation
                         JOINT LeftForeArm
                         {
                              OFFSET 32.76690 0.09914 -1.42434
                              CHANNELS 3 Zrotation Xrotation Yrotation
                              JOINT LeftHand
                              {
                                   OFFSET 27.56430 0.08536 1.02216
                                   CHANNELS 3 Zrotation Xrotation Yrotation
                                   End Site
                                   {
                                        OFFSET 16.74430 -0.60000 1.50291
                                   }
                              }
                         }
                    }
               }
               JOINT RightShoulder
               {
                    OFFSET -8.99000 -0.36225 -0.22000
                    CHANNELS 3 Zrotation Xrotation Yrotation
                    JOINT RightArm
                    {
                         OFFSET -10.28270 -0.00338 0.32212
                         CHANNELS 3 Zrotation Xrotation Yrotation
                         JOINT RightForeArm
                         {
                              OFFSET -32.89710 0.09914 -1.42434
                              CHANNELS 3 Zrotation Xrotation Yrotation
                              JOINT RightHand
                              {
                                   OFFSET -27.49210 0.08536 1.02216
                                   CHANNELS 3 Zrotation Xrotation Yrotation
                                   End Site
                                   {
                                        OFFSET -16.63120 -0.60000 1.50291
                                   }
                              }
                         }
                    }
               }
          }
     }
     JOINT LeftUpLeg
     {
          OFFSET 8.94580 -8.66707 0.10165
          CHANNELS 3 Zrotation Xrotation Yrotation
          JOINT LeftLeg
          {
               OFFSET 0.00000 -44.42270 1.37270
               CHANNELS 3 Zrotation Xrotation Yrotation
               JOINT LeftFoot
               {
                    OFFSET -0.25355 -42.09240 -1.46059
                    CHANNELS 3 Zrotation Xrotation Yrotation
                    JOINT LeftToes
                    {
                         OFFSET -0.04000 -4.41509 8.49910
                         CHANNELS 3 Zrotation Xrotation Yrotation
                         End Site
                         {
                              OFFSET 0.08000 -0.04745 9.77979
                         }
                    }
               }
          }
     }
     JOINT RightUpLeg
     {
          OFFSET -8.94580 -8.66707 0.10165
          CHANNELS 3 Zrotation Xrotation Yrotation
          JOINT RightLeg
          {
               OFFSET 0.00000 -44.42270 1.37270
               CHANNELS 3 Zrotation Xrotation Yrotation
               JOINT RightFoot
               {
                    OFFSET 0.25355 -42.09240 -1.46059
                    CHANNELS 3 Zrotation Xrotation Yrotation
                    JOINT RightToes
                    {
                         OFFSET 0.04000 -4.41509 8.49910
                         CHANNELS 3 Zrotation Xrotation Yrotation
                         End Site
                         {
                              OFFSET -0.08000 -0.13745 9.77979
                         }
                    }
               }
          }
     }
}
MOTION
Frames: 15
Frame Time: 0.01667
33.83976 93.38309 19.35260 10.06912 26.49595 -166.96756 6.63266 26.53993 -5.98829 -0.04226 0.03187 0.04287 13.47671 -0.21504 -26.46025 2.37352 6.08239 2.26193 -48.66229 -8.92461 -102.91866 -8.79623 14.14911 -85.49965 19.75319 7.45417 -2.00017 1.26129 7.54966 9.85452 84.54040 -29.30936 81.17306 -57.92846 19.23885 91.21973 62.61370 2.68098 -36.97516 20.82209 5.60813 -34.10341 -30.14813 -5.02002 72.13296 2.10102 0.00279 -0.00024 7.60280 -18.63431 -65.04897 18.37621 13.65926 -36.10130 -13.40436 46.06990 7.02341 -11.93388 -0.41112 -0.11904 11.44497 -5.85702 27.21457 
34.69337 94.15996 19.63618 10.79452 30.72134 -161.50464 8.85157 30.99873 -6.83218 0.01613 -0.02461 -0.04890 16.04111 -2.17624 -30.62875 4.28069 4.90214 -0.98275 -36.60504 -3.17931 -104.60664 -2.34359 3.16766 -84.82777 18.14843 7.58886 -1.50438 4.89622 8.84251 16.22939 70.39380 -37.00037 69.24672 -58.76654 19.16662 77.38602 64.65838 3.65980 -37.02309 24.16832 6.17817 -37.54102 -30.74764 -3.40840 71.86779 1.71262 0.01277 -0.01374 7.09792 -17.63530 -66.04254 19.03582 9.16331 -44.13628 -21.62126 49.63665 25.09352 -6.14252 -0.58430 -0.12487 2.68044 1.85204 10.32495 
35.63003 94.98049 19.91916 11.11244 34.57245 -156.58788 11.08740 34.26533 -7.40753 0.02047 -0.01660 -0.04794 18.39389 -3.60343 -34.46289 5.87060 4.19448 -4.07157 -27.99080 0.33264 -106.49972 1.53240 -4.68282 -83.81326 16.46907 7.81535 -1.46984 8.49545 8.08257 11.58420 57.75135 -30.42189 57.73447 -57.22248 19.33373 62.46317 48.67534 7.87813 -27.43360 27.17889 6.24158 -39.27541 -31.17138 -1.11345 72.77653 1.25171 0.02335 -0.01105 5.64995 -13.61919 -53.67341 17.54112 3.88569 -51.05011 -31.40238 52.60535 42.93194 -4.71938 -0.13348 -0.10292 5.54935 -0.50594 4.20929 
36.59671 95.77261 20.17091 11.14832 38.05046 -152.13951 13.15654 36.48940 -7.73913 0.01811 -0.00812 -0.04388 20.57150 -4.48436 -37.91142 7.11867 3.99525 -6.76493 -21.77902 2.73229 -108.25660 3.88026 -9.96829 -82.89211 14.99989 8.14077 -1.54511 11.91450 7.61143 7.85376 47.44518 -21.94817 48.47357 -53.09504 18.84255 46.85072 62.19476 5.00860 -31.79570 29.86562 6.04140 -39.46427 -31.27378 1.68441 74.51063 0.79186 0.03096 -0.00819 4.83660 -15.32410 -66.45110 14.08030 -1.81787 -57.16329 -42.06730 54.27647 59.31919 -0.41649 -0.24436 -0.18914 3.72585 3.24034 -3.74912 
37.53062 96.48284 20.36483 11.01011 41.16658 -148.10670 14.98668 37.84286 -7.86654 0.01847 0.00110 -0.03886 22.60813 -4.92399 -40.98035 -0.07799 4.00440 -0.33172 -8.54293 6.96531 -117.49229 4.91076 -13.27779 -82.03593 13.83744 8.42619 -1.88750 15.44777 7.44738 4.87655 39.44775 -11.79303 41.03787 -46.90084 16.41511 31.53074 43.45748 9.61125 -17.31605 32.26111 5.83971 -39.35591 -30.88730 4.02479 77.67592 0.52329 0.02499 -0.00718 2.32738 -15.65136 -53.58859 8.79993 -7.63516 -62.76384 -52.59571 54.99823 73.24068 2.68921 -0.10856 -0.14685 3.88376 4.90717 -7.17219 
38.38131 97.03779 20.48811 10.78430 43.94611 -144.45027 16.54531 38.45692 -7.78005 0.01877 0.00673 -0.03373 24.55987 -4.99339 -43.73550 2.10670 5.05786 -3.17471 -6.79562 7.64859 -117.74512 5.32532 -14.92245 -81.63391 12.99574 8.66777 -2.01391 19.28648 7.59100 2.36865 34.71552 -4.94913 36.67516 -38.66893 15.07493 19.19180 54.37350 0.60777 -27.49038 34.41825 5.69555 -38.99846 -30.06544 5.66961 81.98087 0.66118 -0.00243 -0.00863 1.27988 -16.09783 -66.03932 1.80894 -13.20769 -68.07558 -62.28878 55.19004 84.72233 5.71629 -0.03567 -0.15339 3.29302 8.81878 -9.85593 
39.12775 97.37672 20.52037 10.51847 46.41538 -141.13033 17.89052 38.44881 -7.53875 0.01962 0.01159 -0.03221 26.42924 -4.75285 -46.22060 4.38458 6.31617 -5.29974 -8.92922 10.51208 -114.85138 5.15550 -12.10785 -84.65257 12.53670 8.85490 -2.06055 32.39308 9.80950 5.83808 22.21190 -5.41014 27.92681 -28.84101 13.45508 9.08293 31.84984 7.72438 -17.76723 36.35902 5.58923 -38.43657 -28.93140 7.19342 85.16305 0.64270 0.00489 0.00806 -0.67360 -15.38045 -70.40813 -6.72103 -18.12763 -73.18983 -71.19183 55.30299 93.19375 -4.76218 -0.02303 0.36888 -0.45292 10.01666 -10.00492 
39.78109 97.50775 20.39446 10.22368 48.58824 -138.10049 19.05880 37.94724 -7.18297 0.02392 0.02085 -0.02511 28.20280 -4.30557 -48.49150 6.72416 7.69646 -7.00927 -13.86472 14.06209 -109.82596 4.81833 -6.51523 -89.37350 12.64960 9.08370 -1.95901 35.27131 9.74796 2.98419 24.99945 -4.44585 24.34212 -21.90269 12.75917 3.45451 29.80260 8.25504 -16.39212 38.11580 5.49364 -37.71121 -27.61865 8.48341 87.36163 0.55698 0.00843 0.00843 -1.56508 -15.35112 -76.75574 -16.48828 -22.00772 -77.98499 -77.59717 55.72128 97.80968 -4.61290 0.06711 -0.07080 8.81823 16.60563 -6.91741 
40.37843 97.45078 19.96341 9.88584 50.47382 -135.29837 19.95152 37.03170 -6.74854 0.02470 0.02496 -0.02408 29.92518 -3.67229 -50.54955 8.70173 8.98990 -8.58592 -21.16325 16.78897 -103.19608 4.11992 1.04624 -94.45688 13.36806 9.47741 -2.19152 38.10562 9.60857 0.11788 26.79992 -4.36629 22.07062 -18.15533 12.29436 0.60186 16.19115 10.38153 -10.45432 39.76186 5.37333 -36.86274 -26.26767 9.58822 88.67867 0.34734 0.01215 0.00843 -2.51244 -15.07592 -80.56113 -26.96181 -24.59778 -82.09093 -81.75087 56.92889 99.71801 -11.01497 -0.24424 0.31116 -0.02931 14.05862 -7.54141 
40.93227 97.32272 19.19112 9.50206 52.09228 -132.67955 20.41849 35.78108 -6.25672 0.02126 0.02575 -0.02565 31.67041 -2.86926 -52.37656 10.11496 10.15760 -10.13113 -25.91241 18.23581 -98.92684 3.80551 6.10046 -96.87553 14.45059 9.84909 -2.43561 40.50649 9.34280 -2.84473 28.18854 -4.68285 20.46903 -16.48601 12.12506 -0.71819 18.01313 9.63730 -11.04088 41.38806 5.20353 -35.92737 -24.98539 10.59684 89.20732 -0.06361 0.01702 0.00935 -3.01002 -14.98040 -84.30882 -37.57471 -26.06884 -85.10104 -81.52154 59.35565 98.11962 -14.78955 -0.22169 0.25321 1.85581 10.50925 -0.66206 
41.43779 97.23402 18.13946 9.09797 53.48050 -130.24059 20.37900 34.28086 -5.72129 0.01802 0.02563 -0.02614 33.48908 -1.91441 -53.96485 11.02946 11.29376 -11.45275 -28.78321 18.98612 -96.11804 3.37500 9.27949 -97.88103 15.64406 10.07268 -2.65182 42.52069 9.04745 -5.69343 29.32825 -5.28189 19.09204 -15.99944 12.18336 -1.08484 12.37917 10.04757 -8.51388 43.06055 4.97247 -34.92889 -23.81262 11.56005 89.04755 -0.69259 0.02007 0.01071 -3.43351 -14.80441 -86.94133 -47.84249 -26.74774 -86.78410 -76.01058 62.79164 92.94139 -19.21720 -0.26697 0.40393 2.94582 7.37238 -0.28627 
41.90619 97.30903 16.72330 8.69519 54.68527 -127.97115 19.78703 32.60172 -5.16895 0.01404 0.02468 -0.02527 35.40849 -0.82144 -55.31145 0.61731 8.49262 -7.87429 -24.81243 23.51138 -93.12775 0.21036 15.02146 -97.39063 34.53422 17.43318 -0.35894 44.19677 8.66879 -8.14729 30.06087 -10.32828 16.91071 -14.98816 16.04244 0.85572 14.89283 9.23177 -8.75468 44.87165 4.70257 -33.89801 -22.75541 12.48064 88.27014 -1.54685 0.02133 0.01265 -3.65686 -14.66657 -89.06478 -57.53388 -27.11610 -87.06651 -64.47639 66.24789 83.20122 -16.43808 0.08612 -0.19493 1.48830 5.99529 6.83787 
42.35266 97.57079 14.98481 8.30960 55.76583 -125.86648 18.62770 30.79572 -4.58910 0.01136 0.02281 -0.02299 36.18552 0.33063 -55.60796 1.35995 10.10508 -8.45547 -32.58599 20.60800 -90.76909 -1.69800 17.73347 -96.06080 18.17628 8.44788 -2.00589 45.54152 8.33474 -10.16317 31.01550 -13.71143 15.06122 -18.29079 14.49207 2.18720 16.06179 13.12040 -7.41214 46.89608 4.42888 -32.86922 -21.78666 13.31722 86.95421 -2.59188 0.02035 0.01495 -3.81639 -14.52020 -90.47501 -66.47816 -27.52199 -85.96503 -47.24788 68.10713 67.91428 -8.70430 0.10445 -0.80840 4.12357 6.14462 9.42089 
42.80129 97.88099 13.11065 7.94828 56.75720 -123.93750 16.99520 28.92638 -4.02739 0.01361 0.02280 -0.02256 35.86827 1.66599 -55.05061 2.16332 11.65205 -8.84957 -37.10830 19.27830 -88.98981 -2.46212 19.94475 -95.23759 41.96563 17.09018 3.00389 37.89199 0.82163 -9.19197 38.25089 -9.87535 6.48383 -20.33205 13.62654 3.36566 20.49407 14.49829 -7.87989 49.08847 4.14123 -31.85257 -20.89574 14.02588 85.23071 -3.72404 0.01658 0.01621 -3.84724 -14.42888 -91.38738 -74.42820 -28.15619 -83.49866 -28.26331 66.91094 49.91226 1.57846 -0.15546 -1.13365 4.18034 6.32725 9.51061 
43.28399 98.07808 11.22543 7.60569 57.64124 -122.20259 14.97737 27.05665 -3.49562 0.01686 0.02586 -0.01849 34.49089 3.32874 -53.78635 3.24129 13.16956 -8.97152 -39.71037 19.08212 -87.51993 -2.49176 21.76093 -94.87240 35.03069 5.78371 1.31361 40.28950 2.05339 -11.14170 38.45574 -12.22318 6.07079 -21.31655 13.18158 4.16936 19.67324 -2.65635 -7.81006 51.30433 3.78917 -30.82911 -20.13096 14.60067 83.26056 -4.83138 0.01113 0.01524 -3.74737 -14.43017 -91.85056 -80.98090 -29.08230 -79.61872 -14.18695 62.50522 35.01130 12.94749 -0.43783 -1.15022 4.38885 5.70785 7.47629 
